<svg width="205" height="83" viewBox="0 0 205 83" fill="none" xmlns="http://www.w3.org/2000/svg">
<g clip-path="url(#clip0_696_1055)">
<path fill-rule="evenodd" clip-rule="evenodd" d="M2.30114 19.1802C4.30411 21.895 6.94394 23.5114 10.2206 24.0292C13.4972 24.547 16.4846 23.8199 19.183 21.848C21.9287 19.8834 23.564 17.2482 24.0888 13.9421C24.6136 10.636 23.8705 7.65087 21.8595 4.98681C19.9039 2.27936 17.2879 0.666754 14.0113 0.148945C10.7347 -0.368864 7.72344 0.354471 4.97767 2.31896C2.28745 4.24008 0.67993 6.85371 0.155122 10.1598C-0.369687 13.4659 0.345667 16.4726 2.30114 19.1802ZM15.9905 3.91023C16.9898 5.28263 16.6849 7.20351 15.3094 8.20061L15.0231 8.40815L16.9026 10.9892L19.3126 9.24224C20.2923 10.5877 20.0183 12.4604 18.7112 13.4729L19.4248 14.453C19.9245 15.1392 19.772 16.0997 19.0842 16.5982C18.3966 17.0968 17.4339 16.9447 16.9343 16.2585L16.2215 15.2796L13.561 17.2083L14.5011 18.4992C15.0007 19.1855 14.8483 20.1459 14.1605 20.6445C13.4728 21.1431 12.5102 20.991 12.0105 20.3047L11.0704 19.0138L9.68565 20.0175C8.9979 20.5162 8.03531 20.364 7.53566 19.6778C7.03596 18.9917 7.18844 18.0311 7.87616 17.5327L9.261 16.5287L7.38155 13.9477L6.27019 14.7533C5.58246 15.2519 4.61987 15.0998 4.12019 14.4136C3.62052 13.7273 3.77298 12.7669 4.46072 12.2684L5.57207 11.4627L5.44316 11.2857C4.44381 9.91327 4.74873 7.9924 6.12422 6.99529L8.0626 9.65729L10.7231 7.72862L10.6931 7.68743C9.69379 6.31503 9.99871 4.39416 11.3742 3.39704L13.2137 5.92319L15.9905 3.91023ZM9.87207 12.1422L12.5326 10.2136L14.4121 12.7947L11.7515 14.7233L9.87207 12.1422Z" fill="#8853F4"/>
<path d="M4.77734 82.2604V29.2612H19.5059V82.2604H4.77734Z" fill="white"/>
<path d="M46.0176 51.6368V82.2607H31.2891V29.2615H45.7801V38.6952H46.3027C47.5063 35.598 49.4227 33.1487 52.0516 31.3475C54.6806 29.5143 57.9588 28.5979 61.8865 28.5979C67.4294 28.5979 71.8638 30.3836 75.1896 33.9547C78.547 37.4943 80.2258 42.3612 80.2258 48.5555V82.2607H65.4973V51.1628C65.4973 47.9077 64.6579 45.3635 62.9793 43.5305C61.3321 41.6976 59.0357 40.781 56.0901 40.781C53.1127 40.781 50.6897 41.7449 48.8208 43.6727C46.9521 45.569 46.0176 48.2237 46.0176 51.6368Z" fill="white"/>
<path d="M95.477 82.2604V40.354H88.0176V29.2612H95.477V25.4214C95.477 19.7012 97.124 15.4189 100.418 12.5746C103.744 9.73027 107.893 8.30811 112.866 8.30811C115.147 8.30811 117.221 8.49773 119.09 8.87697C120.991 9.22462 122.384 9.52485 123.271 9.77767L120.658 20.7757C120.088 20.6178 119.391 20.4596 118.567 20.3017C117.744 20.1436 116.873 20.0645 115.954 20.0645C113.801 20.0645 112.28 20.5702 111.393 21.5817C110.538 22.5614 110.111 23.9519 110.111 25.7532V29.2612H120.705V40.354H110.111V82.2604H95.477Z" fill="white"/>
<path d="M144.461 11.6262V82.2601H129.732V11.6262H144.461Z" fill="white"/>
<path d="M190.262 59.7428V29.2612H204.991V82.2604H190.831V72.6371H190.262C189.09 75.7342 187.11 78.2309 184.322 80.1271C181.568 82.0232 178.194 82.9556 174.203 82.924C168.85 82.9556 164.51 81.2017 161.185 77.6621C157.891 74.0909 156.243 69.2081 156.243 63.0137V29.2612H170.972V60.454C170.972 63.551 171.811 66.0161 173.49 67.8491C175.169 69.6505 177.402 70.5355 180.19 70.5038C182.818 70.5355 185.147 69.6347 187.173 67.8017C189.232 65.9687 190.262 63.2824 190.262 59.7428Z" fill="white"/>
</g>
<defs>
<clipPath id="clip0_696_1055">
<rect width="205" height="83" fill="white"/>
</clipPath>
</defs>
</svg>
